<svg width="22" height="20" viewBox="0 0 22 20" fill="none" xmlns="http://www.w3.org/2000/svg">
<path d="M6.30858 14.1454L11.2262 18.6761L15.7241 14.3728C17.7966 12.3899 19.4612 10.0171 20.6233 7.38905C21.4007 5.63103 20.9487 3.56911 19.5082 2.30226L19.4063 2.21271C17.7747 0.77777 15.3779 0.707223 13.671 2.00106C13.4937 2.13547 13.3414 2.29948 13.201 2.47212L11.5778 4.46841L9.02725 2.1896C7.30238 0.672701 4.7494 0.598541 2.94025 2.01279L2.70937 2.19327C1.04366 3.49538 0.523954 5.79816 1.46768 7.69517C2.67607 10.1242 4.31675 12.3103 6.30858 14.1454Z" fill="#D9D9D9"/>
<path d="M11.5778 19L6.30858 14.1454C4.31675 12.3103 2.67607 10.1242 1.46768 7.69517C0.523954 5.79816 1.04366 3.49538 2.70937 2.19327L2.94025 2.01279C4.7494 0.598541 7.30238 0.672701 9.02725 2.1896L11.5778 4.46841L13.201 2.47212C13.3414 2.29948 13.4937 2.13547 13.671 2.00106C15.3779 0.707223 17.7747 0.77777 19.4063 2.21271L19.5082 2.30226C20.9487 3.56911 21.4007 5.63103 20.6233 7.38905C19.4612 10.0171 17.7966 12.3899 15.7241 14.3728L10.8877 19" stroke="black"/>
</svg>
